<svg width="25" height="25" viewBox="0 0 25 25" fill="none" xmlns="http://www.w3.org/2000/svg">
<g clip-path="url(#clip0)">
<path d="M21.3542 6.71545H3.64585C1.6354 6.71545 0 8.35085 0 10.3613V20.7779C0 22.7883 1.6354 24.4238 3.64585 24.4238H21.3542C23.3646 24.4238 25 22.7884 25 20.7779V10.3613C25 8.35085 23.3646 6.71545 21.3542 6.71545ZM23.9583 20.778C23.9583 22.2134 22.7906 23.3821 21.3542 23.3821H3.64585C2.20937 23.3821 1.0417 22.2134 1.0417 20.778V10.3613C1.0417 8.92585 2.20942 7.7571 3.64585 7.7571H21.3542C22.7907 7.7571 23.9583 8.92585 23.9583 10.3613V20.778Z" fill="#6D787D"/>
<path d="M20.3125 14.0071C19.451 14.0071 18.75 14.7081 18.75 15.5696C18.75 16.4311 19.451 17.1321 20.3125 17.1321C21.174 17.1321 21.875 16.4311 21.875 15.5696C21.875 14.7081 21.174 14.0071 20.3125 14.0071ZM20.3125 16.0904C20.026 16.0904 19.7917 15.8571 19.7917 15.5696C19.7917 15.2821 20.026 15.0487 20.3125 15.0487C20.599 15.0487 20.8333 15.2821 20.8333 15.5696C20.8333 15.8571 20.599 16.0904 20.3125 16.0904Z" fill="#6D787D"/>
<path d="M24.4791 11.9238H20.3125C18.3021 11.9238 16.6666 13.5592 16.6666 15.5697C16.6666 17.5801 18.302 19.2155 20.3125 19.2155H24.4791C24.7666 19.2155 25 18.9822 25 18.6947V12.4447C25 12.1572 24.7666 11.9238 24.4791 11.9238ZM23.9583 18.1738H20.3125C18.876 18.1738 17.7083 17.0051 17.7083 15.5697C17.7083 14.1343 18.876 12.9655 20.3125 12.9655H23.9583V18.1738Z" fill="#6D787D"/>
<path d="M21.299 7.00297L19.0938 2.59252C18.649 1.70292 17.8813 1.04775 16.9334 0.747747C15.9855 0.448772 14.9813 0.542522 14.1042 1.01337L3.39899 6.77797C3.14586 6.91337 3.05109 7.23007 3.18751 7.4832C3.32399 7.73632 3.64064 7.8311 3.89274 7.69467L14.6 1.93212C15.225 1.59462 15.9448 1.5269 16.6198 1.7415C17.2969 1.95502 17.8448 2.42377 18.1625 3.05922L20.3677 7.46962C20.4594 7.6519 20.6427 7.75712 20.8334 7.75712C20.9115 7.75712 20.9906 7.7394 21.0656 7.7019C21.3229 7.57275 21.4271 7.26025 21.299 7.00297Z" fill="#6D787D"/>
<path d="M19.2094 2.82378C19.0719 2.56963 18.7552 2.47588 18.5031 2.61128L10.7646 6.77793C10.5115 6.91441 10.4167 7.23003 10.5531 7.48316C10.6469 7.65816 10.826 7.75713 11.0115 7.75713C11.0948 7.75713 11.1802 7.73735 11.2594 7.69566L18.9979 3.52901C19.251 3.39253 19.3458 3.07691 19.2094 2.82378Z" fill="#6D787D"/>
<path d="M9.375 3.59045H5.72915C2.57085 3.59045 0 6.16023 0 9.3196V10.3613C0 10.6488 0.23335 10.8821 0.52085 10.8821C0.80835 10.8821 1.0417 10.6488 1.0417 10.3613V9.3196C1.0417 6.73523 3.14482 4.6321 5.7292 4.6321H9.375C9.6625 4.6321 9.89585 4.39875 9.89585 4.11125C9.89585 3.82375 9.6625 3.59045 9.375 3.59045Z" fill="#6D787D"/>
<path d="M19.2708 3.59045C18.9833 3.59045 18.75 3.8238 18.75 4.1113C18.75 4.3988 18.9833 4.63215 19.2708 4.63215C21.8552 4.63215 23.9583 6.73528 23.9583 9.31965V10.3613C23.9583 10.6488 24.1917 10.8822 24.4792 10.8822C24.7667 10.8822 25 10.6488 25 10.3613V9.31965C25 6.16023 22.4291 3.59045 19.2708 3.59045Z" fill="#6D787D"/>
</g>
<defs>
<clipPath id="clip0">
<rect width="25" height="25" fill="white"/>
</clipPath>
</defs>
</svg>
